<svg xmlns="http://www.w3.org/2000/svg" width="16" height="16" viewBox="0 0 16 16">
    <g fill="none" fill-rule="evenodd">
        <g>
            <g transform="translate(-206.000000, -77.000000) translate(206.000000, 77.000000)">
                <circle cx="8" cy="8" r="8" fill="#CCC"/>
                <path fill="#333" d="M3.63 5.985c.326.027 1.688.093 4.085.196l-.259-.012h1.087l.049-.001c2.206-.096 3.466-.157 3.779-.183.49-.042.547.77-.554.869-1.102.1-2.14.181-2.625.801-.484.62-.246 1.142.157 2.09.403.947.782 1.887.87 2.24.088.353-.008.846-.51.692-.32-.098-.855-1.035-1.604-2.811h-.21c-.75 1.776-1.284 2.713-1.604 2.81-.502.155-.598-.338-.51-.69.088-.354.467-1.294.87-2.241.403-.948.641-1.47.157-2.09-.484-.62-1.523-.702-2.625-.801-1.101-.1-1.045-.91-.554-.87zM8 3c.69 0 1.25.56 1.25 1.25S8.69 5.5 8 5.5s-1.25-.56-1.25-1.25S7.31 3 8 3z"/>
            </g>
        </g>
    </g>
</svg>
